<svg xmlns="http://www.w3.org/2000/svg" viewBox="0 0 480.4 480.4"><defs><style>.a{fill:#fff;}.b,.d{fill:none;}.b{stroke:#fff;stroke-width:8px;}.b,.d,.g{stroke-miterlimit:10;}.c{fill:#75c834;}.d{stroke:#75c834;stroke-width:9.08px;}.e{fill:#363636;}.f{fill:#003e7a;}.g{fill:#91969b;stroke:#91969b;stroke-width:0.25px;}.h{fill:#023f7a;}</style></defs><title>altro-export</title><circle class="a" cx="240.2" cy="240.2" r="218.85"/><circle class="b" cx="240.2" cy="240.2" r="236.2"/><rect class="c" x="144.31" y="265.11" width="14" height="14" rx="2.65"/><rect class="c" x="159.98" y="279.85" width="14" height="14" rx="2.65"/><path class="c" d="M153,279.1s6.2-.05,6.95,6.94l4.66-6.19s-6.33.89-6.33-6.84Z"/><rect class="c" x="144.31" y="294.58" width="14" height="14" rx="2.65"/><path class="c" d="M153,294.58s6.2.05,6.95-6.95l4.66,6.2s-6.33-.89-6.33,6.84Z"/><path class="d" d="M166.33,269.72h9.14a10.9,10.9,0,0,1,10.86,10.86V293.1A10.88,10.88,0,0,1,175.47,304h-9.05"/><path class="c" d="M207.39,296h-7.92V277.66h7.92a9.86,9.86,0,0,1,2.85.4,6,6,0,0,1,3.13,2.33,8.23,8.23,0,0,1,1.31,3,14.38,14.38,0,0,1,.35,3,12.22,12.22,0,0,1-1.47,6.21A6.65,6.65,0,0,1,207.39,296Zm2.86-13.69c-.59-1-1.76-1.5-3.5-1.5H203.2v12h3.55a3.84,3.84,0,0,0,3.79-2.68,9.52,9.52,0,0,0,.58-3.51,8.66,8.66,0,0,0-.87-4.27Z"/><path class="e" d="M231.69,293.39a6.9,6.9,0,0,0,2.21-.3,2.15,2.15,0,0,0,1.61-2.14,1.59,1.59,0,0,0-.8-1.4,8.23,8.23,0,0,0-2.51-.87l-1.94-.43a12.09,12.09,0,0,1-4-1.41,4.49,4.49,0,0,1-1.86-4,5.26,5.26,0,0,1,1.8-4.1,7.56,7.56,0,0,1,5.27-1.64,8.08,8.08,0,0,1,5,1.54,5.46,5.46,0,0,1,2.15,4.47h-3.69a2.64,2.64,0,0,0-1.45-2.35,4.78,4.78,0,0,0-2.23-.46,4.29,4.29,0,0,0-2.37.59,1.89,1.89,0,0,0-.88,1.68,1.59,1.59,0,0,0,.87,1.47,11.27,11.27,0,0,0,2.39.76l3.17.76a8.18,8.18,0,0,1,3.14,1.33,4.49,4.49,0,0,1,1.65,3.76,5.26,5.26,0,0,1-1.93,4.18,8.07,8.07,0,0,1-5.44,1.67,8.77,8.77,0,0,1-5.65-1.64,5.47,5.47,0,0,1-2.06-4.51h3.67a3.64,3.64,0,0,0,.68,1.88A4,4,0,0,0,231.69,293.39Z"/><path class="e" d="M257,289.43h-3.91V296h-3.81V277.66h8a6.54,6.54,0,0,1,4.42,1.42,5.53,5.53,0,0,1,1.65,4.4c0,2.17-.55,3.7-1.65,4.61A7.31,7.31,0,0,1,257,289.43Zm1.79-3.83a2.62,2.62,0,0,0,.75-2.09,2.49,2.49,0,0,0-.75-2.05,3.34,3.34,0,0,0-2.12-.61h-3.58v5.42h3.58a3.08,3.08,0,0,0,2.08-.67Z"/><path class="e" d="M282.66,292.26h-6.77L274.62,296h-4l6.56-18.38h4.34L288,296h-4.16Zm-1.07-3.16-2.29-7.24-2.37,7.24Z"/><path class="e" d="M309.48,294.67a7.51,7.51,0,0,1-5.27,1.88A7.89,7.89,0,0,1,298,294a10.09,10.09,0,0,1-2.27-7q0-4.81,2.58-7.42a7.66,7.66,0,0,1,5.71-2.27q4.65,0,6.79,3a6.57,6.57,0,0,1,1.27,3.43h-3.84a5.38,5.38,0,0,0-1-2,4,4,0,0,0-3.11-1.2,3.85,3.85,0,0,0-3.3,1.69,8.13,8.13,0,0,0-1.21,4.78,7.1,7.1,0,0,0,1.28,4.64,4,4,0,0,0,3.24,1.54,3.68,3.68,0,0,0,3.08-1.32,5.68,5.68,0,0,0,1-2.14H312A8.17,8.17,0,0,1,309.48,294.67Z"/><path class="e" d="M334.85,288h-8.93v4.73h10.17V296H322.16V277.66h13.48v3.25h-9.72v3.91h8.93Z"/><path class="f" d="M132.13,157.28q13.37,7.13,16.35,25h-12.2q-2.17-10-9-14.52T110,163.17a26.87,26.87,0,0,0-20.83,9.47q-8.46,9.48-8.46,28.24,0,16.23,7,26.42t22.76,10.18q12.07,0,20-7.15t8.1-23.13H110V197h40v48.68h-8L139,234q-6.15,6.88-10.9,9.54-8,4.59-20.29,4.58a39.17,39.17,0,0,1-27.35-10.46Q68,224.48,68,201.56t12.21-36.35q11.6-12.89,30-12.88Q122.92,152.33,132.13,157.28Z"/><path class="f" d="M170.22,154.68h12.33v80.14h45.64v10.84h-58Z"/><path class="f" d="M267.2,154.68h13.94l33,91h-13.5l-9.23-27.25h-36l-9.85,27.25H233Zm20.25,53.7-13.81-40.2L259,208.38Z"/><path class="f" d="M325.05,154.68H342.7l26.16,76.92,26-76.92H412.4v91H400.6V192q0-2.79.12-9.23t.13-13.81l-26,76.73H362.66L336.44,169v2.78c0,2.23.06,5.62.19,10.19s.19,7.92.18,10.07v53.69H325.05Z"/><path class="g" d="M189.18,412.73a2,2,0,0,0-.69-.57,2.27,2.27,0,0,0-1.56-.14,1.52,1.52,0,0,0-.53.25,1.45,1.45,0,0,0-.39.43,1.21,1.21,0,0,0-.15.62,1.1,1.1,0,0,0,.14.59,1.15,1.15,0,0,0,.37.39,2.38,2.38,0,0,0,.55.28l.68.24a7,7,0,0,1,.88.3,3.19,3.19,0,0,1,.81.44,2.3,2.3,0,0,1,.59.69,2.28,2.28,0,0,1,.23,1.06,2.54,2.54,0,0,1-.25,1.15,2.22,2.22,0,0,1-.66.8,2.62,2.62,0,0,1-.94.48,4.12,4.12,0,0,1-1.1.16,4,4,0,0,1-1.56-.32,3.34,3.34,0,0,1-1.25-.92l.93-.79a2.47,2.47,0,0,0,.81.73,2.31,2.31,0,0,0,1.09.27,2.47,2.47,0,0,0,.6-.08,1.88,1.88,0,0,0,.55-.27,1.33,1.33,0,0,0,.4-.45,1.42,1.42,0,0,0,0-1.3,1.54,1.54,0,0,0-.44-.44,2.5,2.5,0,0,0-.64-.3l-.78-.26a5.6,5.6,0,0,1-.81-.3,2.73,2.73,0,0,1-.71-.44,2.18,2.18,0,0,1-.5-.67,2.5,2.5,0,0,1,.06-2.09,2.33,2.33,0,0,1,.68-.75,2.53,2.53,0,0,1,.94-.44,3.74,3.74,0,0,1,1.05-.14,4,4,0,0,1,1.4.26,2.82,2.82,0,0,1,1,.71Z"/><path class="g" d="M192.91,414.84a1.8,1.8,0,0,1,.7-.72,2.06,2.06,0,0,1,1.11-.3,2.2,2.2,0,0,1,.95.18,2,2,0,0,1,.66.5,2.11,2.11,0,0,1,.39.74,3.06,3.06,0,0,1,.13.9v3.54h-1.13v-3.16a3.79,3.79,0,0,0-.06-.67,1.57,1.57,0,0,0-.19-.55,1.24,1.24,0,0,0-.4-.39,1.3,1.3,0,0,0-.64-.14,1.39,1.39,0,0,0-1.11.51,2,2,0,0,0-.43,1.37v3h-1.13v-9.1h1.13v4.26Z"/><path class="g" d="M202.32,416a1.12,1.12,0,0,0-.39-.94,1.63,1.63,0,0,0-1-.31,2.22,2.22,0,0,0-.91.19,2.3,2.3,0,0,0-.72.47l-.6-.72a3.26,3.26,0,0,1,1-.63,3.64,3.64,0,0,1,1.31-.22,3,3,0,0,1,1.06.17,2,2,0,0,1,1.18,1.19,2.83,2.83,0,0,1,.14.87v3.11a4.6,4.6,0,0,0,.06.52h-1a3.75,3.75,0,0,1-.1-.82h0a2.16,2.16,0,0,1-.79.71,2.34,2.34,0,0,1-1.13.25,2.74,2.74,0,0,1-.7-.09,1.82,1.82,0,0,1-.67-.29,1.84,1.84,0,0,1-.5-.54,1.59,1.59,0,0,1-.2-.83,1.46,1.46,0,0,1,.35-1,2.13,2.13,0,0,1,.92-.58,5,5,0,0,1,1.27-.26c.48,0,1-.06,1.44-.06Zm-.28,1h-.87a5.64,5.64,0,0,0-.82.15,1.63,1.63,0,0,0-.61.32.75.75,0,0,0-.24.58.77.77,0,0,0,.1.42.9.9,0,0,0,.27.28,1.37,1.37,0,0,0,.38.15,1.48,1.48,0,0,0,.42,0,1.55,1.55,0,0,0,1.22-.47,1.76,1.76,0,0,0,.43-1.2V417Z"/><path class="g" d="M205.28,414.61V414h1.07v1h0a2,2,0,0,1,.7-.82,1.89,1.89,0,0,1,1-.3,1.7,1.7,0,0,1,.45,0l-.05,1.05a2.24,2.24,0,0,0-.52-.06,1.44,1.44,0,0,0-.71.15,1.64,1.64,0,0,0-.5.41,1.58,1.58,0,0,0-.29.58,2.3,2.3,0,0,0-.1.69v3H205.2v-4.5A1.09,1.09,0,0,0,205.28,414.61Z"/><path class="g" d="M214.77,416.78v.41h-4.54a1.75,1.75,0,0,0,.17.68,1.79,1.79,0,0,0,1,.91,2,2,0,0,0,1.71-.12,2,2,0,0,0,.66-.61l.79.64a2.8,2.8,0,0,1-1.07.89,3.41,3.41,0,0,1-1.38.29,3.36,3.36,0,0,1-1.21-.22,3,3,0,0,1-1-.61,2.8,2.8,0,0,1-.62-.94,3.06,3.06,0,0,1-.23-1.23,3.18,3.18,0,0,1,.22-1.22,2.67,2.67,0,0,1,.62-1,2.8,2.8,0,0,1,.94-.62,3.12,3.12,0,0,1,1.17-.22,3,3,0,0,1,1.14.2,2.24,2.24,0,0,1,.87.59,2.83,2.83,0,0,1,.55.93A3.77,3.77,0,0,1,214.77,416.78Zm-1.16-.46a2.68,2.68,0,0,0-.11-.63,1.28,1.28,0,0,0-.31-.51,1.42,1.42,0,0,0-.49-.35,2,2,0,0,0-.69-.12,1.78,1.78,0,0,0-1.24.47,2.12,2.12,0,0,0-.38.51,1.75,1.75,0,0,0-.18.63Z"/><path class="g" d="M221.51,418.45h0l1.58-4.48h1.2l-2.75,7a5.38,5.38,0,0,1-.31.64,1.68,1.68,0,0,1-.4.48,1.48,1.48,0,0,1-.53.31,2.27,2.27,0,0,1-.73.11h-.37a1.59,1.59,0,0,1-.38-.07l.11-1a1.84,1.84,0,0,0,.57.09.86.86,0,0,0,.66-.24,2.37,2.37,0,0,0,.4-.71l.36-.95L218.47,414h1.27Z"/><path class="g" d="M231.19,416.81A3,3,0,0,1,231,418a2.66,2.66,0,0,1-.65,1,3.05,3.05,0,0,1-1,.62,3.29,3.29,0,0,1-2.43,0,2.85,2.85,0,0,1-1.88-2.8,3.11,3.11,0,0,1,.24-1.21,3,3,0,0,1,.64-.94,3.05,3.05,0,0,1,1-.62,3.5,3.5,0,0,1,2.43,0,3.05,3.05,0,0,1,1,.62,2.69,2.69,0,0,1,.65.94A3.05,3.05,0,0,1,231.19,416.81Zm-1.18,0a2.28,2.28,0,0,0-.13-.78,1.83,1.83,0,0,0-.37-.65,1.67,1.67,0,0,0-.6-.45,1.74,1.74,0,0,0-.81-.17,1.8,1.8,0,0,0-.82.17,1.75,1.75,0,0,0-.59.45,1.69,1.69,0,0,0-.37.65,2.45,2.45,0,0,0,0,1.56,1.73,1.73,0,0,0,.37.66,1.7,1.7,0,0,0,1.41.62,1.77,1.77,0,0,0,1.41-.62,1.87,1.87,0,0,0,.37-.66,2.53,2.53,0,0,0,.12-.77Z"/><path class="g" d="M236.77,419.68v-.94h0a1.78,1.78,0,0,1-.73.78,2.39,2.39,0,0,1-2.13.13,1.53,1.53,0,0,1-.66-.49,2.11,2.11,0,0,1-.39-.74,3.51,3.51,0,0,1-.13-.91V414h1.14v3.16a3.75,3.75,0,0,0,0,.67,1.59,1.59,0,0,0,.2.55,1.07,1.07,0,0,0,.4.39,1.32,1.32,0,0,0,.65.14,1.37,1.37,0,0,0,1.1-.51,2,2,0,0,0,.43-1.36v-3h1.13v5.71Z"/><path class="g" d="M239.75,414.61V414h1.07v1h0a2,2,0,0,1,.7-.82,1.89,1.89,0,0,1,1-.3,1.7,1.7,0,0,1,.45,0l-.05,1.05a2.24,2.24,0,0,0-.52-.06,1.44,1.44,0,0,0-.71.15,1.64,1.64,0,0,0-.5.41,1.58,1.58,0,0,0-.29.58,2.3,2.3,0,0,0-.1.69v3h-1.13v-4.5A1.09,1.09,0,0,0,239.75,414.61Z"/><path class="g" d="M248.28,416.45h0l2.4-2.48h1.51l-2.67,2.59,2.9,3.12H250.9l-2.58-3h0v3h-1.13v-9.1h1.13Z"/><path class="g" d="M254.5,414v.94h0a1.84,1.84,0,0,1,.3-.43,2.79,2.79,0,0,1,.42-.35,2.08,2.08,0,0,1,.53-.23,2,2,0,0,1,.6-.08,2.46,2.46,0,0,1,1,.18,2,2,0,0,1,.66.5,2.11,2.11,0,0,1,.39.74,3.06,3.06,0,0,1,.13.9v3.54h-1.14v-3.17a3.67,3.67,0,0,0-.05-.66,1.59,1.59,0,0,0-.2-.55,1.07,1.07,0,0,0-.4-.39,1.49,1.49,0,0,0-1.75.37,2.09,2.09,0,0,0-.43,1.36v3h-1.13V414Z"/><path class="g" d="M266.26,416.81A2.86,2.86,0,0,1,266,418a2.66,2.66,0,0,1-.65,1,3.05,3.05,0,0,1-1,.62,3.32,3.32,0,0,1-2.43,0,3.05,3.05,0,0,1-1-.62,3,3,0,0,1-.87-2.18,3,3,0,0,1,.23-1.21,3,3,0,0,1,.64-.94,3.05,3.05,0,0,1,1-.62,3.5,3.5,0,0,1,2.43,0,3.05,3.05,0,0,1,1,.62,2.69,2.69,0,0,1,.65.94A3,3,0,0,1,266.26,416.81Zm-1.18,0A2.22,2.22,0,0,0,265,416a1.83,1.83,0,0,0-.37-.65,1.75,1.75,0,0,0-.59-.45,1.8,1.8,0,0,0-.82-.17,1.74,1.74,0,0,0-.81.17,1.67,1.67,0,0,0-.6.45,1.83,1.83,0,0,0-.37.65,2.45,2.45,0,0,0,0,1.56,1.87,1.87,0,0,0,.37.66,1.77,1.77,0,0,0,1.41.62A1.83,1.83,0,0,0,265,417.6a2.28,2.28,0,0,0,.08-.78Z"/><path class="g" d="M268.25,414l1.28,4.36h0l1.36-4.36h1.19l1.39,4.36h0l1.29-4.36H276l-1.89,5.71h-1.18l-1.41-4.29h0l-1.4,4.29h-1.18L267,414Z"/><path class="g" d="M278.29,419.68h-1.13v-9.1h1.13Z"/><path class="g" d="M285.6,416.78v.41H281a1.75,1.75,0,0,0,.17.68,1.79,1.79,0,0,0,1,.91,2,2,0,0,0,2.37-.73l.79.64a2.8,2.8,0,0,1-1.07.89,3.39,3.39,0,0,1-2.58.07,3,3,0,0,1-1-.61,2.8,2.8,0,0,1-.62-.94,3.06,3.06,0,0,1-.23-1.23,3.18,3.18,0,0,1,.22-1.22,2.67,2.67,0,0,1,.62-1,2.8,2.8,0,0,1,.94-.62,3.12,3.12,0,0,1,1.17-.22,3,3,0,0,1,1.14.2,2.24,2.24,0,0,1,.87.59,2.83,2.83,0,0,1,.55.93A3.58,3.58,0,0,1,285.6,416.78Zm-1.16-.46a2.68,2.68,0,0,0-.11-.63,1.28,1.28,0,0,0-.31-.51,1.42,1.42,0,0,0-.49-.35,2,2,0,0,0-.69-.12,1.78,1.78,0,0,0-1.24.47,2.12,2.12,0,0,0-.38.51,1.75,1.75,0,0,0-.18.63Z"/><path class="g" d="M291.71,418.78a2.08,2.08,0,0,1-.88.78,2.56,2.56,0,0,1-1.18.28,2.85,2.85,0,0,1-1.19-.24,2.74,2.74,0,0,1-.9-.64,3,3,0,0,1-.58-1,3.51,3.51,0,0,1,0-2.35,3.12,3.12,0,0,1,.58-1,2.89,2.89,0,0,1,.91-.64,2.93,2.93,0,0,1,1.17-.22,2.44,2.44,0,0,1,1.22.29,2.7,2.7,0,0,1,.82.72h0v-4.25h1.13v9.1h-1.09v-.83Zm-3.75-2a2.53,2.53,0,0,0,.12.77,2.12,2.12,0,0,0,.36.66,1.78,1.78,0,0,0,.59.46,1.8,1.8,0,0,0,.82.17,1.73,1.73,0,0,0,.78-.16,2.24,2.24,0,0,0,.61-.45,2.09,2.09,0,0,0,.39-.66,2.21,2.21,0,0,0,0-1.56,2.09,2.09,0,0,0-.39-.66,1.93,1.93,0,0,0-.61-.45,1.62,1.62,0,0,0-.78-.17,1.8,1.8,0,0,0-.82.17,1.63,1.63,0,0,0-.59.45,2.12,2.12,0,0,0-.36.66,2.46,2.46,0,0,0-.08.81Z"/><path class="g" d="M295.25,420.65a2.81,2.81,0,0,0,2.08.93,2.44,2.44,0,0,0,1-.16A1.69,1.69,0,0,0,299,421a1.64,1.64,0,0,0,.33-.66,3.4,3.4,0,0,0,.11-.84v-.73h0a2,2,0,0,1-.85.73,2.73,2.73,0,0,1-1.16.26,3.23,3.23,0,0,1-1.19-.23,2.57,2.57,0,0,1-.9-.63,2.65,2.65,0,0,1-.58-.93,3.28,3.28,0,0,1,0-2.31,2.85,2.85,0,0,1,.58-.94,2.74,2.74,0,0,1,.9-.64,2.79,2.79,0,0,1,1.18-.23,2.63,2.63,0,0,1,1.17.26,2,2,0,0,1,.89.81h0V414h1.1v5.42a4.4,4.4,0,0,1-.16,1.2,2.54,2.54,0,0,1-.53,1,2.59,2.59,0,0,1-1,.7,3.69,3.69,0,0,1-1.5.27,4.28,4.28,0,0,1-1.5-.27,3.76,3.76,0,0,1-1.29-.77Zm.34-3.88a2.11,2.11,0,0,0,.13.75,1.71,1.71,0,0,0,.37.64,1.89,1.89,0,0,0,.6.45,2,2,0,0,0,.79.17,2,2,0,0,0,.8-.16,1.82,1.82,0,0,0,1-1.07,2.18,2.18,0,0,0,0-1.55,1.65,1.65,0,0,0-.4-.64,2,2,0,0,0-1.41-.61,2,2,0,0,0-.79.17,1.84,1.84,0,0,0-.6.43,1.58,1.58,0,0,0-.37.64A2.06,2.06,0,0,0,295.59,416.77Z"/><path class="g" d="M307.75,416.78v.41H303.2a1.74,1.74,0,0,0,.16.68,2.15,2.15,0,0,0,.4.55,1.71,1.71,0,0,0,.59.36,1.85,1.85,0,0,0,.7.13,1.93,1.93,0,0,0,1-.25,2,2,0,0,0,.66-.61l.8.64a2.83,2.83,0,0,1-1.08.89,3.11,3.11,0,0,1-1.38.29,3.27,3.27,0,0,1-1.2-.22,2.87,2.87,0,0,1-1-.61,2.83,2.83,0,0,1-.63-.94,3.34,3.34,0,0,1,0-2.45,2.59,2.59,0,0,1,.62-1,2.8,2.8,0,0,1,.94-.62,3.28,3.28,0,0,1,2.31,0,2.36,2.36,0,0,1,.87.59,2.83,2.83,0,0,1,.55.93A3.68,3.68,0,0,1,307.75,416.78Zm-1.16-.46a1.94,1.94,0,0,0-.11-.63,1.42,1.42,0,0,0-.8-.86,1.62,1.62,0,0,0-.69-.12,2,2,0,0,0-.68.12,1.84,1.84,0,0,0-.94.86,1.56,1.56,0,0,0-.17.63Z"/><path class="h" d="M237.2,374.66c-2.34.62-4.17,2.42-6.53,6.44-.7,1.21-1.29,2.25-1.29,2.34a31.61,31.61,0,0,0,4.13.05l4.14-.08,1.07-3.8c1.57-5.74,1.52-5.35.59-5.32A10.85,10.85,0,0,0,237.2,374.66Z"/><path class="h" d="M194,383.27a8.3,8.3,0,0,0-4.33,2.16,6.13,6.13,0,0,0-2.26,4.65c0,2.87.79,3.74,5.29,5.88,3,1.4,3.44,1.71,3.44,2.3,0,1.07-.85,1.61-2.45,1.61a8.51,8.51,0,0,1-5-1.72l-1.29-.9-1.86,1.86L183.68,401l.68.73c1.15,1.23,4.39,2.64,6.78,2.95,6,.82,10.58-1.86,11.14-6.44.34-2.93-1.21-4.79-5.48-6.59a14.17,14.17,0,0,1-3-1.6c-.45-.51-.45-.59-.06-1.24.93-1.38,3.71-1.18,6.3.45l1.35.87,1.75-1.94c1.66-1.8,1.74-1.94,1.29-2.42a13.34,13.34,0,0,0-5.57-2.47A12.42,12.42,0,0,0,194,383.27Z"/><path class="h" d="M215.67,383.3c-6.69,1.29-11.47,8.41-10.07,14.91a8.65,8.65,0,0,0,5.07,5.79c1.49.68,2,.76,4.5.79s3-.08,4.64-.87,3.94-2.45,3.94-2.93a10.75,10.75,0,0,0-1.8-1.83l-1.8-1.57-1.3.9a5,5,0,0,1-5.51.48,4.19,4.19,0,0,1-1.89-4.19c.31-3.58,3.16-6.45,6.39-6.45a4.28,4.28,0,0,1,3.49,1.72l.73.87,2.34-1.18c1.26-.68,2.42-1.29,2.53-1.41.39-.34-1.61-2.92-3-3.85A11.19,11.19,0,0,0,215.67,383.3Z"/><path class="h" d="M297.41,383.44a12.78,12.78,0,0,0-9.23,8.58c-.82,2.36-.7,6.24.22,8a10.34,10.34,0,0,0,4.76,4.13c3.15,1.13,7.43.82,9.9-.7,1.21-.76,2.84-2.17,2.84-2.48a10.39,10.39,0,0,0-1.8-1.83l-1.8-1.57-1.29.9a5,5,0,0,1-5.52.48,4.2,4.2,0,0,1-1.88-4.19c.31-3.58,3.15-6.45,6.39-6.45a4.26,4.26,0,0,1,3.48,1.72l.74.87,2.33-1.18c1.27-.68,2.42-1.29,2.53-1.41.4-.34-1.6-2.92-2.95-3.85A11.13,11.13,0,0,0,297.41,383.44Z"/><path class="h" d="M167.25,389.91c-6.5,5.79-7.11,6.41-7,7.09.08.42.22,1.35.33,2.08l.17,1.35h4.76a27.89,27.89,0,0,1,4.75.2c0,.14-.25,1-.53,2l-.54,1.77h5.55l.45-1.6.56-2c.06-.22.7-.37,1.43-.43l1.3-.08.53-1.69c.73-2.33.71-2.39-.53-2.39a3.46,3.46,0,0,1-1.24-.14,53.65,53.65,0,0,1,1.49-6c.93-3.21,1.66-6,1.66-6.19s-.79-.34-3-.34h-3Zm5.15,3.23a20.74,20.74,0,0,1-1,2.87,8,8,0,0,1-2.54.14l-2.3-.08,3.18-2.87a31.9,31.9,0,0,1,3.26-2.76A17.84,17.84,0,0,1,172.4,393.14Z"/><path class="h" d="M238.94,384.06c-3.51.92-5.54,2.7-7.45,6.52a42.16,42.16,0,0,0-3.38,12.16l-.2,1.63h8.36l2.78-10.07c1.55-5.52,2.85-10.22,2.93-10.41C242.15,383.44,241.19,383.47,238.94,384.06Z"/><path class="h" d="M241.84,404.37h17l.59-2.22c.34-1.21.62-2.28.62-2.39a45.54,45.54,0,0,0-5.48-.17c-6,0-5.74.14-5.1-2l.37-1.27,5.07-.08,5-.06.48-1.8c.25-1,.56-2,.65-2.25s-.4-.45-4.81-.45h-5l.19-1a9.94,9.94,0,0,1,.42-1.69l.29-.68h10.94l.59-2.05c.34-1.1.65-2.2.7-2.39s-1.68-.34-8.3-.34h-8.41Z"/><path class="h" d="M267.78,383.89c-.08.19-1.32,4.67-2.81,9.9s-2.73,9.76-2.82,10c-.16.51,0,.54,2.73.54h2.9l1.66-5.91a38.69,38.69,0,0,1,1.83-5.77c.08.12,1.32,2.73,2.73,5.86l2.59,5.68,2.61.08,2.65.06,2.78-10c1.55-5.55,2.85-10.25,2.93-10.44s-.51-.34-2.79-.28l-2.92.08-1.55,5.54a49.11,49.11,0,0,1-1.72,5.57c-.08,0-1.29-2.53-2.67-5.62l-2.5-5.63h-2.76C268.71,383.55,267.87,383.66,267.78,383.89Z"/><path class="h" d="M307.73,403l-.39,1.35h17.08l.45-1.77c.25-1,.53-2,.62-2.39l.17-.62h-5.52c-6.19,0-5.82.14-5.12-2.11l.34-1.13,5-.14,5-.14.62-2.11.59-2.11-4.9-.09c-5.43-.08-5.12.06-4.53-2.16l.34-1.27H328.6l.28-1.07c.17-.56.48-1.63.7-2.39l.39-1.32H313.28S308,402.29,307.73,403Z"/></svg>